<svg width="1920" height="346" viewBox="0 0 1920 346" fill="none" xmlns="http://www.w3.org/2000/svg">
<g filter="url(#filter0_d)">
<path d="M1920.03 3.18741C1920.95 88.3671 1852.15 157.907 1766.96 157.907V157.907H1270.83H312.48H173.996V157.907C78.8359 157.907 1.6936 235.05 1.6936 330.209V345.601L-0.00012207 -6.10352e-05H1920L1920.03 3.18741Z" fill="white"/>
<path d="M1920.03 3.18741C1920.95 88.3671 1852.15 157.907 1766.96 157.907V157.907H1270.83H312.48H173.996V157.907C78.8359 157.907 1.6936 235.05 1.6936 330.209V345.601L-0.00012207 -6.10352e-05H1920L1920.03 3.18741Z" fill="url(#paint0_linear)"/>
</g>
<defs>
<filter id="filter0_d" x="-20" y="-40" width="1960.04" height="385.601" filterUnits="userSpaceOnUse" color-interpolation-filters="sRGB">
<feFlood flood-opacity="0" result="BackgroundImageFix"/>
<feColorMatrix in="SourceAlpha" type="matrix" values="0 0 0 0 0 0 0 0 0 0 0 0 0 0 0 0 0 0 127 0"/>
<feOffset dy="-20"/>
<feGaussianBlur stdDeviation="10"/>
<feColorMatrix type="matrix" values="0 0 0 0 0.329167 0 0 0 0 0.329167 0 0 0 0 0.329167 0 0 0 0.05 0"/>
<feBlend mode="normal" in2="BackgroundImageFix" result="effect1_dropShadow"/>
<feBlend mode="normal" in="SourceGraphic" in2="effect1_dropShadow" result="shape"/>
</filter>
<linearGradient id="paint0_linear" x1="936.467" y1="234.1" x2="936.369" y2="-0.000118898" gradientUnits="userSpaceOnUse">
<stop stop-color="#57B8F8"/>
<stop offset="0.671875" stop-color="#98D5FF"/>
</linearGradient>
</defs>
</svg>
