<svg width="1920" height="484" viewBox="0 0 1920 484" fill="none" xmlns="http://www.w3.org/2000/svg">
<g filter="url(#filter0_d)">
<path d="M-0.0341912 480.812C-0.947901 395.633 67.8504 326.092 153.035 326.092V326.092H649.169H1607.52H1746V326.092C1841.37 326.092 1918.87 249.156 1919.57 153.795L1920 95.0322V484H0L-0.0341912 480.812Z" fill="white"/>
<path d="M-0.0341912 480.812C-0.947901 395.633 67.8504 326.092 153.035 326.092V326.092H649.169H1607.52H1746V326.092C1841.37 326.092 1918.87 249.156 1919.57 153.795L1920 95.0322V484H0L-0.0341912 480.812Z" fill="url(#paint0_linear)"/>
</g>
<defs>
<filter id="filter0_d" x="-75.043" y="0.0322266" width="2070.04" height="538.968" filterUnits="userSpaceOnUse" color-interpolation-filters="sRGB">
<feFlood flood-opacity="0" result="BackgroundImageFix"/>
<feColorMatrix in="SourceAlpha" type="matrix" values="0 0 0 0 0 0 0 0 0 0 0 0 0 0 0 0 0 0 127 0"/>
<feOffset dy="-20"/>
<feGaussianBlur stdDeviation="37.5"/>
<feColorMatrix type="matrix" values="0 0 0 0 0.329167 0 0 0 0 0.329167 0 0 0 0 0.329167 0 0 0 0.15 0"/>
<feBlend mode="normal" in2="BackgroundImageFix" result="effect1_dropShadow"/>
<feBlend mode="normal" in="SourceGraphic" in2="effect1_dropShadow" result="shape"/>
</filter>
<linearGradient id="paint0_linear" x1="979.296" y1="-141.576" x2="979.896" y2="655.612" gradientUnits="userSpaceOnUse">
<stop stop-color="#7DC8F8"/>
<stop offset="1" stop-color="#57B8F8"/>
</linearGradient>
</defs>
</svg>
